<svg version="1.2" xmlns="http://www.w3.org/2000/svg" viewBox="0 0 262 262" width="262" height="262">
	<title>google-icon-logo-svgrepo-com-svg</title>
	<style>
		.s0 { fill: #4285f4 } 
		.s1 { fill: #34a853 } 
		.s2 { fill: #fbbc05 } 
		.s3 { fill: #eb4335 } 
	</style>
	<path class="s0" d="m258.9 133.5c0-10.8-0.9-18.6-2.8-26.7h-122.5v48.4h71.9c-1.5 12-9.3 30.2-26.7 42.4l-0.2 1.6 38.7 30 2.7 0.3c24.7-22.8 38.9-56.3 38.9-96z"/>
	<path class="s1" d="m133.6 261.1c35.2 0 64.8-11.6 86.4-31.6l-41.2-31.9c-11 7.7-25.8 13-45.2 13-34.6 0-63.9-22.8-74.3-54.2l-1.5 0.1-40.3 31.2-0.6 1.5c21.5 42.6 65.6 71.9 116.7 71.9z"/>
	<path class="s2" d="m59.3 156.4c-2.8-8.2-4.4-16.9-4.4-25.8 0-9 1.6-17.7 4.2-25.9v-1.7l-40.8-31.7-1.4 0.6c-8.8 17.7-13.9 37.6-13.9 58.7 0 21 5.1 40.9 13.9 58.6z"/>
	<path class="s3" d="m133.6 50.5c24.5 0 41 10.6 50.4 19.4l36.9-36c-22.7-21-52.1-33.9-87.3-33.9-51.1 0-95.2 29.3-116.7 71.9l42.2 32.8c10.6-31.4 39.9-54.2 74.5-54.2z"/>
</svg>